<svg width="130" height="19" viewBox="0 0 130 19" fill="none" xmlns="http://www.w3.org/2000/svg">
<path d="M5.27698 0.749999V16.068L3.32198 14.159H16.248V18H0.929977V0.749999H5.27698ZM21.713 10.364C21.713 11.2073 21.874 11.9433 22.196 12.572C22.5333 13.1853 23.0163 13.6607 23.645 13.998C24.2737 14.32 25.048 14.481 25.968 14.481C26.888 14.481 27.6623 14.32 28.291 13.998C28.9197 13.6607 29.395 13.1853 29.717 12.572C30.0543 11.9433 30.223 11.2073 30.223 10.364V0.749999H34.57V10.571C34.57 12.135 34.2097 13.4997 33.489 14.665C32.7683 15.8303 31.764 16.7427 30.476 17.402C29.188 18.046 27.6853 18.368 25.968 18.368C24.2507 18.368 22.748 18.046 21.46 17.402C20.172 16.7427 19.1677 15.8303 18.447 14.665C17.7263 13.4997 17.366 12.135 17.366 10.571V0.749999H21.713V10.364ZM47.3607 10.318V7.719L55.7327 18H50.3737L44.6467 10.617H46.7167L40.9667 18H35.6997L44.1177 7.742V10.295L36.2287 0.749999H41.6337L46.8547 7.42H44.7617L49.8907 0.749999H55.2037L47.3607 10.318ZM55.2885 12.365H59.6815C59.7582 12.8863 59.9958 13.3463 60.3945 13.745C60.7932 14.1437 61.3222 14.4503 61.9815 14.665C62.6562 14.8797 63.4382 14.987 64.3275 14.987C65.6002 14.987 66.5968 14.8107 67.3175 14.458C68.0535 14.1053 68.4215 13.607 68.4215 12.963C68.4215 12.4723 68.2068 12.0967 67.7775 11.836C67.3635 11.56 66.5815 11.3607 65.4315 11.238L62.0965 10.893C59.7812 10.663 58.1022 10.1263 57.0595 9.283C56.0322 8.43967 55.5185 7.28967 55.5185 5.833C55.5185 4.683 55.8558 3.70167 56.5305 2.889C57.2205 2.07633 58.1788 1.45533 59.4055 1.026C60.6475 0.596666 62.0965 0.381999 63.7525 0.381999C65.3932 0.381999 66.8422 0.619666 68.0995 1.095C69.3568 1.57033 70.3612 2.22967 71.1125 3.073C71.8638 3.91633 72.2702 4.90533 72.3315 6.04H67.9385C67.8772 5.56467 67.6625 5.166 67.2945 4.844C66.9418 4.50667 66.4588 4.246 65.8455 4.062C65.2475 3.86267 64.5268 3.763 63.6835 3.763C62.5182 3.763 61.5905 3.93167 60.9005 4.269C60.2258 4.591 59.8885 5.05867 59.8885 5.672C59.8885 6.132 60.0878 6.49233 60.4865 6.753C60.9005 7.01367 61.6288 7.20533 62.6715 7.328L66.1905 7.719C67.8005 7.88767 69.0885 8.156 70.0545 8.524C71.0205 8.892 71.7182 9.398 72.1475 10.042C72.5768 10.686 72.7915 11.4987 72.7915 12.48C72.7915 13.6607 72.4312 14.6957 71.7105 15.585C71.0052 16.459 70.0085 17.1413 68.7205 17.632C67.4478 18.1227 65.9605 18.368 64.2585 18.368C62.4952 18.368 60.9465 18.115 59.6125 17.609C58.2938 17.103 57.2512 16.4053 56.4845 15.516C55.7332 14.6113 55.3345 13.561 55.2885 12.365ZM80.0978 2.682H84.4448V18H80.0978V2.682ZM73.3818 0.749999H91.1608V4.591H73.3818V0.749999ZM93.5194 14.527V11.008H105.433V14.527H93.5194ZM102.397 0.749999L110.355 18H105.732L98.9014 2.567H100.235L93.4274 18H88.7814L96.7624 0.749999H102.397ZM115.125 8.34H121.588C122.4 8.34 123.044 8.156 123.52 7.788C123.995 7.40467 124.233 6.87567 124.233 6.201C124.233 5.52633 123.995 5.005 123.52 4.637C123.044 4.25367 122.4 4.062 121.588 4.062H114.504L116.459 1.923V18H112.112V0.749999H122.163C123.451 0.749999 124.578 0.979999 125.544 1.44C126.51 1.9 127.261 2.53633 127.798 3.349C128.334 4.16167 128.603 5.11233 128.603 6.201C128.603 7.27433 128.334 8.21733 127.798 9.03C127.261 9.84267 126.51 10.479 125.544 10.939C124.578 11.399 123.451 11.629 122.163 11.629H115.125V8.34ZM117.908 9.927H122.807L129.155 18H124.118L117.908 9.927Z" fill="white"/>
</svg>
